@startuml
title 基于GitHub的实验管理平台--类图
class users {
    <b>user_id</b> （用户ID）
    name （用户真实姓名）
    github_username （用户GitHub账号）
    update_date （用户GitHub账号修改日期）
    password （用户密码）
    disable （用户是否禁用）
    course （用户的选课）
}
class courses{
    <b>course_id</b> （课程ID）
    course_name （课程名称）
    course_number(课程数量)
    open_class_college（开课学院）
    open_class_major （开课专业）
}
class teachers{
    <b>teacher_id</b> （老师工号）
    department （老师所属部门）
}
class students{
    <b>student_id</b> （学号）
    class （班级）
    result_sum（成绩汇总）
    web_sum （网站正确与否汇总）
}
class semester{
    <b>semester_id</b> （学期编号）
    semester_name  （学期名称）

}
users <|- students
users <|-- teachers
courses<|-- users

class grades {
    <b>student_id</b> （学号）
    <b>test_id</b> （实验编号）
    result （分数）
    memo （评价）
    update_date （评改日期）
}
class tests {
    <b>test_id</b> （实验编号）
    title (实验名称)
    Semester（学期）
}
students "1" -- "n"  grades
tests "1" -- "n"  grades
courses "1"-- "n" tests
semester "1" -- "n" users
courses "n"-- "1" semester
@enduml